<svg width="1200" height="670" viewBox="0 0 1200 670" fill="none" xmlns="http://www.w3.org/2000/svg">
<g style="mix-blend-mode:color-burn" opacity="0.15">
<path d="M33.3939 653.585C15.0811 633.345 4.8475 610.443 2.15445 584.877C1.07723 581.149 0 575.822 0 569.431C0 544.931 4.30888 511.908 13.4653 469.831C17.2355 450.657 23.1603 427.755 30.7008 401.124C38.2413 375.558 47.3977 348.927 57.6313 320.698C75.9441 268.502 94.2568 218.436 113.647 171.033C133.037 122.564 147.579 92.7377 158.351 81.0201C172.355 65.5741 190.668 61.8458 212.751 69.3024C234.834 76.7591 245.606 90.6072 245.606 109.781C245.606 113.51 242.375 125.227 235.911 144.402C228.371 163.576 219.753 184.881 210.597 207.783C188.514 256.251 168.046 310.579 148.656 370.764C128.189 430.95 116.34 472.494 113.647 495.397C112.57 504.452 110.415 516.702 107.722 531.615C114.185 525.224 123.342 515.104 134.653 500.723C142.193 493.267 159.429 470.897 185.282 433.613C212.213 396.33 240.759 355.851 270.382 311.111C363.562 175.826 428.734 88.4767 465.898 48.5304C497.137 16.5733 524.068 0.594727 547.228 0.594727C552.614 0.594727 558 1.65995 564.464 4.32304C593.01 14.4428 606.475 36.2801 605.398 69.3024C604.321 102.325 588.163 169.435 556.923 270.632C545.074 308.981 535.379 342.003 527.838 370.232C520.298 398.461 517.066 412.841 518.143 414.439C519.22 415.504 525.684 411.776 537.533 402.721C550.46 393.667 565.541 382.482 582.238 368.101C618.325 337.209 645.255 316.97 663.568 306.85C682.958 296.73 701.809 291.404 719.584 291.404C748.13 291.404 769.136 301.524 783.678 322.296C796.605 342.536 803.068 375.558 803.068 419.765C803.068 459.179 805.223 482.082 808.993 488.473C814.379 495.93 825.69 494.864 844.003 484.745C853.159 481.016 872.01 466.103 900.018 440.537C928.564 414.972 951.725 394.732 969.499 379.286C978.655 371.83 986.734 365.438 994.813 360.112C1001.28 353.721 1008.28 347.862 1016.36 343.068C1047.6 316.437 1069.68 315.372 1084.22 340.938C1090.69 353.721 1093.92 365.438 1093.92 375.558C1095 385.678 1092.84 394.2 1086.38 400.591C1073.45 414.439 1059.99 428.82 1045.44 442.668C1031.44 456.516 1018.51 468.766 1006.66 478.886C932.873 541.202 876.319 577.953 836.462 588.073C796.605 599.79 765.904 597.127 745.437 580.616C731.433 567.833 720.122 551.322 712.582 530.55C706.118 510.31 702.887 484.212 702.887 452.255C702.887 440.537 702.348 430.418 700.732 421.363C699.655 413.906 697.501 409.646 694.807 409.646C693.73 409.646 686.19 414.972 673.263 425.091C659.259 435.211 643.101 447.994 624.788 463.44C587.085 496.462 555.846 519.898 529.993 532.148C504.139 545.996 482.595 551.322 465.898 547.594C433.581 540.137 414.73 519.365 409.883 486.343C404.496 453.32 412.037 400.591 431.427 329.22C438.968 302.589 445.431 279.154 450.817 260.512L456.742 229.621C455.664 228.555 444.354 241.871 423.886 270.1C403.419 298.328 379.182 332.416 352.251 373.427C293.004 461.31 247.222 525.224 214.906 565.17C183.666 606.182 157.274 633.345 135.73 647.726C117.417 660.509 98.0271 667.433 77.5599 669.031C74.8669 669.031 72.1738 669.031 70.0194 669.031C53.861 669.031 41.473 663.704 33.3939 653.585Z" fill="url(#paint0_linear)"/>
<path d="M1127.29 300.444C1117.59 289.791 1113.82 278.606 1115.98 266.889C1119.21 255.171 1127.83 245.584 1141.83 238.127C1154.76 230.671 1167.68 231.203 1180.61 239.725C1193.54 248.247 1200 260.497 1200 276.476C1200 292.454 1190.84 303.639 1172.53 310.031C1163.91 313.226 1155.83 314.292 1148.29 313.226C1140.75 311.096 1133.75 306.835 1127.29 300.444Z" fill="url(#paint1_linear)"/>
</g>
<defs>
<linearGradient id="paint0_linear" x1="547.091" y1="0.594727" x2="547.091" y2="669.031" gradientUnits="userSpaceOnUse">
<stop stop-color="#FE5826"/>
<stop offset="1" stop-color="#FE9E82"/>
</linearGradient>
<linearGradient id="paint1_linear" x1="1157.69" y1="232.908" x2="1157.69" y2="313.626" gradientUnits="userSpaceOnUse">
<stop stop-color="#FE5826"/>
<stop offset="1" stop-color="#FE9E82"/>
</linearGradient>
</defs>
</svg>
