<svg width="86" height="82" viewBox="0 0 86 82" fill="none" xmlns="http://www.w3.org/2000/svg">
<g filter="url(#filter0_i)">
<path d="M58.3875 27.0377C54.0607 22.7122 46.9336 22.8377 42.7711 27.4402C38.6074 22.8354 31.4791 22.7145 27.1547 27.0377C25.1204 29.0732 24 31.7774 24 34.6553C24 37.5331 25.1204 40.2385 27.1547 42.2717L41.3568 56.4738C42.1379 57.2548 43.4043 57.2548 44.1853 56.4737L58.3875 42.2705C60.4218 40.2373 61.5422 37.5331 61.5422 34.6553C61.5422 31.7774 60.4218 29.0732 58.3875 27.0377Z" fill="#FF460F"/>
</g>
<g filter="url(#filter1_f)">
<path d="M64.9337 21.2318C58.7932 15.093 48.6784 15.2711 42.771 21.8029C36.862 15.2678 26.7455 15.0963 20.6084 21.2318C17.7213 24.1205 16.1312 27.9583 16.1312 32.0425C16.1312 36.1267 17.7213 39.9662 20.6084 42.8516L42.771 65.0143L64.9337 42.85C67.8208 39.9645 69.4108 36.1267 69.4108 32.0425C69.4108 27.9583 67.8208 24.1205 64.9337 21.2318Z" fill="#FF5B48" fill-opacity="0.16"/>
</g>
<defs>
<filter id="filter0_i" x="24" y="20.888" width="37.5421" height="36.1715" filterUnits="userSpaceOnUse" color-interpolation-filters="sRGB">
<feFlood flood-opacity="0" result="BackgroundImageFix"/>
<feBlend mode="normal" in="SourceGraphic" in2="BackgroundImageFix" result="shape"/>
<feColorMatrix in="SourceAlpha" type="matrix" values="0 0 0 0 0 0 0 0 0 0 0 0 0 0 0 0 0 0 127 0" result="hardAlpha"/>
<feOffset dy="-3"/>
<feGaussianBlur stdDeviation="3.5"/>
<feComposite in2="hardAlpha" operator="arithmetic" k2="-1" k3="1"/>
<feColorMatrix type="matrix" values="0 0 0 0 0.25 0 0 0 0 0.0962963 0 0 0 0 0.05 0 0 0 1 0"/>
<feBlend mode="soft-light" in2="shape" result="effect1_innerShadow"/>
</filter>
<filter id="filter1_f" x="0.131226" y="0.761703" width="85.2797" height="80.2526" filterUnits="userSpaceOnUse" color-interpolation-filters="sRGB">
<feFlood flood-opacity="0" result="BackgroundImageFix"/>
<feBlend mode="normal" in="SourceGraphic" in2="BackgroundImageFix" result="shape"/>
<feGaussianBlur stdDeviation="8" result="effect1_foregroundBlur"/>
</filter>
</defs>
</svg>
