<svg width="186" height="25" viewBox="0 0 186 25" fill="none" xmlns="http://www.w3.org/2000/svg">
<path d="M71.23 7.04005C69.19 7.04005 67.462 7.85604 66.43 9.17604C65.542 7.73604 63.982 7.04005 62.11 7.04005C60.358 7.04005 58.87 7.66405 57.91 8.81605V7.18405H55.054V20H58.054V13.496C58.054 10.952 59.398 9.65605 61.39 9.65605C63.214 9.65605 64.27 10.76 64.27 13.04V20H67.27V13.496C67.27 10.952 68.638 9.65605 70.606 9.65605C72.43 9.65605 73.486 10.76 73.486 13.04V20H76.486V12.656C76.486 8.79205 74.326 7.04005 71.23 7.04005Z" fill="white"/>
<path d="M80.8716 5.07204C81.9996 5.07204 82.7916 4.25605 82.7916 3.20005C82.7916 2.21604 81.9756 1.47205 80.8716 1.47205C79.7676 1.47205 78.9516 2.26405 78.9516 3.27205C78.9516 4.28005 79.7676 5.07204 80.8716 5.07204ZM79.3596 20H82.3596V7.18405H79.3596V20Z" fill="white"/>
<path d="M91.6971 17.168C91.2411 17.528 90.6411 17.696 90.0171 17.696C88.8891 17.696 88.2411 17.024 88.2411 15.776V9.68005H91.6731V7.28005H88.2411V4.35205H85.2411V15.848C85.2411 18.68 86.8491 20.168 89.6571 20.168C90.7371 20.168 91.8171 19.88 92.5371 19.304L91.6971 17.168Z" fill="white"/>
<path d="M103.465 7.18405V13.664C103.465 16.232 102.049 17.528 99.9608 17.528C98.0648 17.528 96.9608 16.424 96.9608 14.096V7.18405H93.9608V14.504C93.9608 18.368 96.1928 20.168 99.4808 20.168C101.137 20.168 102.649 19.544 103.609 18.368V20H106.465V7.18405H103.465Z" fill="white"/>
<path d="M113.657 20.168C114.257 20.168 114.881 20.072 115.457 19.856L115.313 17.456C115.073 17.576 114.641 17.696 114.233 17.696C113.033 17.696 112.433 17.024 112.433 15.776V2.19205H109.433V15.992C109.433 18.656 110.993 20.168 113.657 20.168Z" fill="white"/>
<path d="M123.84 5.07204C124.968 5.07204 125.76 4.25605 125.76 3.20005C125.76 2.21604 124.944 1.47205 123.84 1.47205C122.736 1.47205 121.92 2.26405 121.92 3.27205C121.92 4.28005 122.736 5.07204 123.84 5.07204ZM120.888 24.824C123.744 24.824 125.352 23.048 125.352 20.24V7.18405H122.352V20.312C122.352 21.68 121.728 22.352 120.624 22.352C119.952 22.352 119.328 22.184 118.872 21.848L118.008 24.08C118.704 24.608 119.784 24.824 120.888 24.824Z" fill="white"/>
<path d="M134.422 17.624C132.55 17.624 131.158 16.832 130.534 15.368L140.35 13.448C140.326 9.44005 137.446 7.04005 133.87 7.04005C130.054 7.04005 127.27 9.77604 127.27 13.592C127.27 17.408 130.054 20.168 134.35 20.168C136.558 20.168 138.358 19.448 139.486 18.08L137.902 16.232C136.966 17.168 135.862 17.624 134.422 17.624ZM133.87 9.44005C135.67 9.44005 137.014 10.496 137.422 12.056L130.174 13.448V13.424C130.174 10.976 131.686 9.44005 133.87 9.44005Z" fill="white"/>
<path d="M148.632 17.168C148.176 17.528 147.576 17.696 146.952 17.696C145.824 17.696 145.176 17.024 145.176 15.776V9.68005H148.608V7.28005H145.176V4.35205H142.176V15.848C142.176 18.68 143.784 20.168 146.592 20.168C147.672 20.168 148.752 19.88 149.472 19.304L148.632 17.168Z" fill="white"/>
<path d="M160.52 7.18405V8.74405C159.488 7.59205 158.048 7.04005 156.416 7.04005C152.672 7.04005 149.936 9.60804 149.936 13.592C149.936 17.576 152.672 20.168 156.416 20.168C158.168 20.168 159.656 19.568 160.664 18.344V20H163.52V7.18405H160.52ZM156.752 17.6C154.592 17.6 152.96 16.04 152.96 13.592C152.96 11.144 154.592 9.58405 156.752 9.58405C158.936 9.58405 160.568 11.144 160.568 13.592C160.568 16.04 158.936 17.6 156.752 17.6Z" fill="white"/>
<path d="M173.757 7.04005C171.885 7.04005 170.325 7.66405 169.341 8.84005V7.18405H166.485V20H169.485V13.52C169.485 10.952 170.925 9.65605 173.061 9.65605C174.981 9.65605 176.109 10.76 176.109 13.04V20H179.109V12.656C179.109 8.79205 176.829 7.04005 173.757 7.04005Z" fill="white"/>
<path d="M183.467 5.07204C184.595 5.07204 185.387 4.25605 185.387 3.20005C185.387 2.21604 184.571 1.47205 183.467 1.47205C182.363 1.47205 181.547 2.26405 181.547 3.27205C181.547 4.28005 182.363 5.07204 183.467 5.07204ZM181.955 20H184.955V7.18405H181.955V20Z" fill="white"/>
<path d="M1.199 23.4454C0.541483 22.7187 0.174048 21.8964 0.0773549 20.9785C0.0386776 20.8446 0 20.6534 0 20.4239C0 19.5442 0.154709 18.3586 0.483466 16.8478C0.618837 16.1594 0.831563 15.3371 1.1023 14.3809C1.37304 13.4629 1.7018 12.5068 2.06924 11.4932C2.72675 9.61912 3.38427 7.82151 4.08046 6.11952C4.77665 4.37928 5.29879 3.30837 5.68557 2.88765C6.18837 2.33307 6.84589 2.1992 7.63877 2.46693C8.43166 2.73466 8.81843 3.23187 8.81843 3.92032C8.81843 4.05418 8.7024 4.4749 8.47033 5.16335C8.19959 5.85179 7.89017 6.61673 7.56142 7.43904C6.76853 9.17928 6.03366 11.1299 5.33747 13.2908C4.6026 15.4518 4.17715 16.9434 4.08046 17.7657C4.04178 18.0908 3.96443 18.5307 3.86773 19.0661C4.0998 18.8367 4.42855 18.4733 4.83466 17.957C5.10541 17.6892 5.72424 16.8861 6.6525 15.5474C7.61943 14.2088 8.64438 12.7554 9.70801 11.149C13.0536 6.29163 15.3936 3.15538 16.7279 1.72112C17.8496 0.573705 18.8165 0 19.6481 0C19.8415 0 20.0349 0.0382464 20.2669 0.133864C21.2919 0.497211 21.7753 1.28127 21.7367 2.46693C21.698 3.65259 21.1178 6.06215 19.9962 9.69562C19.5707 11.0725 19.2226 12.2582 18.9519 13.2717C18.6811 14.2853 18.5651 14.8016 18.6038 14.859C18.6425 14.8972 18.8745 14.7633 19.3 14.4382C19.7641 14.1131 20.3056 13.7116 20.9051 13.1952C22.2008 12.0861 23.1677 11.3594 23.8252 10.996C24.5214 10.6327 25.1983 10.4414 25.8365 10.4414C26.8614 10.4414 27.6156 10.8048 28.1378 11.5506C28.6019 12.2773 28.8339 13.4629 28.8339 15.0502C28.8339 16.4653 28.9113 17.2876 29.0467 17.5171C29.2401 17.7849 29.6462 17.7466 30.3037 17.3833C30.6324 17.2494 31.3093 16.7139 32.3149 15.796C33.3399 14.8781 34.1714 14.1514 34.8096 13.5968C35.1383 13.3291 35.4284 13.0996 35.7185 12.9084C35.9506 12.6789 36.202 12.4685 36.4921 12.2964C37.6137 11.3402 38.4066 11.302 38.9287 12.2199C39.1608 12.6789 39.2768 13.0996 39.2768 13.4629C39.3155 13.8263 39.2381 14.1323 39.0061 14.3618C38.5419 14.859 38.0585 15.3753 37.5363 15.8725C37.0335 16.3697 36.5694 16.8096 36.144 17.1729C33.4946 19.4104 31.464 20.7299 30.0329 21.0932C28.6019 21.5139 27.4996 21.4183 26.7647 20.8255C26.2619 20.3665 25.8558 19.7737 25.585 19.0279C25.353 18.3012 25.237 17.3641 25.237 16.2167C25.237 15.796 25.2176 15.4327 25.1596 15.1076C25.1209 14.8398 25.0436 14.6869 24.9469 14.6869C24.9082 14.6869 24.6375 14.8781 24.1733 15.2414C23.6705 15.6048 23.0904 16.0637 22.4328 16.6183C21.0791 17.804 19.9575 18.6454 19.0292 19.0853C18.101 19.5825 17.3274 19.7737 16.7279 19.6398C15.5676 19.3721 14.8908 18.6263 14.7167 17.4406C14.5233 16.255 14.7941 14.3618 15.4903 11.7992C15.761 10.843 15.9931 10.0016 16.1865 9.33227L16.3992 8.22311C16.3605 8.18486 15.9544 8.66295 15.2195 9.67649C14.4847 10.69 13.6144 11.9139 12.6475 13.3865C10.5202 16.5418 8.87645 18.8367 7.71613 20.2709C6.59448 21.7434 5.64689 22.7187 4.87334 23.2351C4.21583 23.694 3.51964 23.9426 2.78477 24C2.68807 24 2.59138 24 2.51403 24C1.93387 24 1.48908 23.8088 1.199 23.4454Z" fill="url(#paint0_linear)"/>
<path d="M1.199 23.4454C0.541483 22.7187 0.174048 21.8964 0.0773549 20.9785C0.0386776 20.8446 0 20.6534 0 20.4239C0 19.5442 0.154709 18.3586 0.483466 16.8478C0.618837 16.1594 0.831563 15.3371 1.1023 14.3809C1.37304 13.4629 1.7018 12.5068 2.06924 11.4932C2.72675 9.61912 3.38427 7.82151 4.08046 6.11952C4.77665 4.37928 5.29879 3.30837 5.68557 2.88765C6.18837 2.33307 6.84589 2.1992 7.63877 2.46693C8.43166 2.73466 8.81843 3.23187 8.81843 3.92032C8.81843 4.05418 8.7024 4.4749 8.47033 5.16335C8.19959 5.85179 7.89017 6.61673 7.56142 7.43904C6.76853 9.17928 6.03366 11.1299 5.33747 13.2908C4.6026 15.4518 4.17715 16.9434 4.08046 17.7657C4.04178 18.0908 3.96443 18.5307 3.86773 19.0661C4.0998 18.8367 4.42855 18.4733 4.83466 17.957C5.10541 17.6892 5.72424 16.8861 6.6525 15.5474C7.61943 14.2088 8.64438 12.7554 9.70801 11.149C13.0536 6.29163 15.3936 3.15538 16.7279 1.72112C17.8496 0.573705 18.8165 0 19.6481 0C19.8415 0 20.0349 0.0382464 20.2669 0.133864C21.2919 0.497211 21.7753 1.28127 21.7367 2.46693C21.698 3.65259 21.1178 6.06215 19.9962 9.69562C19.5707 11.0725 19.2226 12.2582 18.9519 13.2717C18.6811 14.2853 18.5651 14.8016 18.6038 14.859C18.6425 14.8972 18.8745 14.7633 19.3 14.4382C19.7641 14.1131 20.3056 13.7116 20.9051 13.1952C22.2008 12.0861 23.1677 11.3594 23.8252 10.996C24.5214 10.6327 25.1983 10.4414 25.8365 10.4414C26.8614 10.4414 27.6156 10.8048 28.1378 11.5506C28.6019 12.2773 28.8339 13.4629 28.8339 15.0502C28.8339 16.4653 28.9113 17.2876 29.0467 17.5171C29.2401 17.7849 29.6462 17.7466 30.3037 17.3833C30.6324 17.2494 31.3093 16.7139 32.3149 15.796C33.3399 14.8781 34.1714 14.1514 34.8096 13.5968C35.1383 13.3291 35.4284 13.0996 35.7185 12.9084C35.9506 12.6789 36.202 12.4685 36.4921 12.2964C37.6137 11.3402 38.4066 11.302 38.9287 12.2199C39.1608 12.6789 39.2768 13.0996 39.2768 13.4629C39.3155 13.8263 39.2381 14.1323 39.0061 14.3618C38.5419 14.859 38.0585 15.3753 37.5363 15.8725C37.0335 16.3697 36.5694 16.8096 36.144 17.1729C33.4946 19.4104 31.464 20.7299 30.0329 21.0932C28.6019 21.5139 27.4996 21.4183 26.7647 20.8255C26.2619 20.3665 25.8558 19.7737 25.585 19.0279C25.353 18.3012 25.237 17.3641 25.237 16.2167C25.237 15.796 25.2176 15.4327 25.1596 15.1076C25.1209 14.8398 25.0436 14.6869 24.9469 14.6869C24.9082 14.6869 24.6375 14.8781 24.1733 15.2414C23.6705 15.6048 23.0904 16.0637 22.4328 16.6183C21.0791 17.804 19.9575 18.6454 19.0292 19.0853C18.101 19.5825 17.3274 19.7737 16.7279 19.6398C15.5676 19.3721 14.8908 18.6263 14.7167 17.4406C14.5233 16.255 14.7941 14.3618 15.4903 11.7992C15.761 10.843 15.9931 10.0016 16.1865 9.33227L16.3992 8.22311C16.3605 8.18486 15.9544 8.66295 15.2195 9.67649C14.4847 10.69 13.6144 11.9139 12.6475 13.3865C10.5202 16.5418 8.87645 18.8367 7.71613 20.2709C6.59448 21.7434 5.64689 22.7187 4.87334 23.2351C4.21583 23.694 3.51964 23.9426 2.78477 24C2.68807 24 2.59138 24 2.51403 24C1.93387 24 1.48908 23.8088 1.199 23.4454Z" fill="#FF5B48"/>
<path d="M40.4753 10.7657C40.1272 10.3832 39.9918 9.98164 40.0692 9.56092C40.1852 9.1402 40.4946 8.79598 40.9974 8.52825C41.4615 8.26052 41.9257 8.27965 42.3898 8.58562C42.8539 8.8916 43.086 9.33144 43.086 9.90514C43.086 10.4788 42.7572 10.8804 42.0997 11.1099C41.7903 11.2247 41.5002 11.2629 41.2295 11.2247C40.9587 11.1482 40.7073 10.9952 40.4753 10.7657Z" fill="url(#paint1_linear)"/>
<path d="M40.4753 10.7657C40.1272 10.3832 39.9918 9.98164 40.0692 9.56092C40.1852 9.1402 40.4946 8.79598 40.9974 8.52825C41.4615 8.26052 41.9257 8.27965 42.3898 8.58562C42.8539 8.8916 43.086 9.33144 43.086 9.90514C43.086 10.4788 42.7572 10.8804 42.0997 11.1099C41.7903 11.2247 41.5002 11.2629 41.2295 11.2247C40.9587 11.1482 40.7073 10.9952 40.4753 10.7657Z" fill="#FF5B48"/>
<defs>
<linearGradient id="paint0_linear" x1="19.6432" y1="0" x2="19.6432" y2="24" gradientUnits="userSpaceOnUse">
<stop stop-color="#FE5826"/>
<stop offset="1" stop-color="#FE9E82"/>
</linearGradient>
<linearGradient id="paint1_linear" x1="41.567" y1="8.34084" x2="41.567" y2="11.239" gradientUnits="userSpaceOnUse">
<stop stop-color="#FE5826"/>
<stop offset="1" stop-color="#FE9E82"/>
</linearGradient>
</defs>
</svg>
